<svg width="16" height="27" viewBox="0 0 16 27" fill="none" xmlns="http://www.w3.org/2000/svg">
<path d="M2.8796 9.17518C3.02973 8.89649 3.24635 8.65889 3.51046 8.48337L7.9421 5.39999L3.40132 12.8811C3.40132 12.8811 3.00459 12.2131 2.84981 11.8751C2.65702 11.4501 2.55978 10.9882 2.56491 10.5218C2.57005 10.0555 2.67747 9.59583 2.8796 9.17518ZM1.05059 14.3359C1.10064 15.0513 1.3035 15.7478 1.64564 16.3787C1.98772 17.0097 2.4612 17.5606 3.03433 17.9944L7.93615 21.4C7.93615 21.4 4.86926 16.9963 2.28251 12.6143C2.0206 12.1514 1.84454 11.6452 1.76275 11.1201C1.72655 10.8823 1.72655 10.6404 1.76275 10.4026C1.69529 10.5271 1.56438 10.7821 1.56438 10.7821C1.30208 11.315 1.12343 11.885 1.03469 12.472C0.983621 13.0925 0.988951 13.7163 1.05059 14.3359ZM13.5482 14.9288C13.3895 14.5908 12.9967 13.9227 12.9967 13.9227L8.46385 21.4L12.8955 18.3186C13.1596 18.143 13.3763 17.9055 13.5264 17.6268C13.7285 17.2061 13.8359 16.7465 13.8411 16.2801C13.8462 15.8137 13.749 15.3518 13.5561 14.9268L13.5482 14.9288ZM15.3474 12.466C15.2974 11.7507 15.0945 11.0541 14.7524 10.4232C14.4103 9.79223 13.9368 9.24136 13.3637 8.80755L8.46975 5.39999C8.46975 5.39999 11.5347 9.80368 14.1235 14.1856C14.3847 14.6487 14.56 15.1549 14.6412 15.6799C14.6774 15.9177 14.6774 16.1596 14.6412 16.3974C14.7087 16.2728 14.8396 16.0179 14.8396 16.0179C15.1019 15.4849 15.2805 14.915 15.3692 14.3279C15.421 13.7075 15.4163 13.0837 15.3554 12.4641L15.3474 12.466Z" fill="#5298FF"/>
</svg>
