<svg width="16" height="26" viewBox="0 0 16 26" fill="none" xmlns="http://www.w3.org/2000/svg">
<path fill-rule="evenodd" clip-rule="evenodd" d="M3.36431 6.51631C3.33839 6.53278 3.32811 6.76378 3.32262 7.45378L3.31526 8.36944L2.16895 8.37666C1.42212 8.38139 1.02265 8.39368 1.02265 8.41195C1.02265 8.46128 1.21724 9.29766 1.24385 9.36276C1.25795 9.39722 1.30929 9.59709 1.35793 9.80697C1.46109 10.2524 1.45116 10.2402 1.71863 10.2509C1.86334 10.2566 1.92496 10.2696 1.92302 10.2939C1.92149 10.313 1.91836 11.9858 1.91607 14.0112L1.9119 17.6939L1.83548 17.7245C1.53001 17.8471 1.4852 17.919 1.46728 18.3157L1.45338 18.6236L1.36383 18.6526C1.09157 18.7405 0.989577 18.9202 1.00083 19.292L1.00875 19.5557L3.22494 19.5554C4.44385 19.5552 5.4849 19.555 5.5384 19.5548L5.63565 19.5546V19.2614C5.63565 18.8662 5.56165 18.7352 5.29855 18.6643C5.23945 18.6484 5.19055 18.6202 5.19005 18.6017C5.17505 18.0997 5.16845 18.0321 5.1267 17.952C5.07285 17.8488 4.94239 17.7483 4.86221 17.7483C4.72035 17.7483 4.7248 17.8242 4.73647 15.5898C4.748 13.3749 4.75175 13.3093 4.89111 12.8991C5.2869 11.7345 6.26295 10.9128 7.5131 10.6918C7.9444 10.6156 8.7156 10.6883 9.00475 10.8326C9.0313 10.8458 9.0726 10.8566 9.09665 10.8566C9.16765 10.8566 9.5791 11.0634 9.8051 11.2126C10.3864 11.5966 10.9325 12.3204 11.1092 12.9408C11.1288 13.0096 11.1613 13.1221 11.1814 13.1909C11.2626 13.4675 11.2767 13.8451 11.2768 15.7389L11.2769 17.6618L11.2151 17.705C11.1812 17.7288 11.1354 17.7483 11.1136 17.7483C10.9292 17.7483 10.8045 17.9827 10.8045 18.3291V18.6072L10.6728 18.6654C10.397 18.7874 10.3321 18.9064 10.3321 19.2897C10.3321 19.5233 10.3378 19.5546 10.3807 19.5549C11.503 19.5627 14.9558 19.5512 14.9745 19.5397C14.9888 19.5308 15.0004 19.4148 15 19.282C14.9991 18.9133 14.8932 18.7337 14.6358 18.6643L14.5282 18.6354L14.5277 18.3516C14.5271 17.9516 14.4251 17.7945 14.1128 17.7128L14.0558 17.6979V13.9716V10.2452L14.2573 10.2448C14.543 10.2442 14.517 10.2896 14.725 9.42543C14.7692 9.24202 14.8314 8.99817 14.8632 8.88354C14.9591 8.5386 14.9759 8.45913 14.9611 8.42064C14.9499 8.39125 14.7221 8.3825 13.8136 8.37666L12.6802 8.36944L12.6663 7.4385L12.6525 6.50756L8.02555 6.50096C5.48075 6.49735 3.3832 6.50429 3.36431 6.51631Z" fill="#8A63D2"/>
</svg>
