<svg width="16" height="27" viewBox="0 0 16 27" fill="none" xmlns="http://www.w3.org/2000/svg">
<g clip-path="url(#clip0_116_51)">
<path fill-rule="evenodd" clip-rule="evenodd" d="M11.0146 11.2678C11.6705 10.7206 12.4022 10.5125 13.1039 10.5651C13.8524 10.6212 14.5451 10.9721 15.0625 11.4817C15.5797 11.9914 15.9351 12.6731 15.992 13.4088C16.0494 14.1512 15.8008 14.9288 15.1455 15.6112C15.0856 15.6741 15.0243 15.7361 14.9617 15.7973C11.9891 18.7255 8.0404 18.7333 8 18.7333C7.97985 18.7333 4.01846 18.7331 1.03815 15.797L1.03751 15.7963C0.975975 15.7353 0.915385 15.6739 0.8557 15.6122L0.855225 15.6116C0.199538 14.9298 -0.0492792 14.1524 0.00794417 13.41C0.064646 12.6744 0.419804 11.9927 0.936975 11.4828C1.45411 10.973 2.14672 10.6219 2.89538 10.5655C3.59705 10.5126 4.32888 10.7206 4.98504 11.2675C5.0556 10.4239 5.4232 9.76744 5.9568 9.3161C6.52585 8.83473 7.2675 8.59998 7.99985 8.59998C8.7322 8.59998 9.4738 8.83473 10.0429 9.3161C10.5765 9.7675 10.9442 10.4241 11.0146 11.2678ZM10.2332 14.3704C10.1518 14.3704 10.1237 14.4861 10.1755 14.5474C10.2673 14.6559 10.3226 14.7956 10.3226 14.948C10.3226 15.2938 10.0381 15.5741 9.68715 15.5741C9.33615 15.5741 9.0516 15.2938 9.0516 14.948C9.0516 14.9295 9.0271 14.9203 9.01605 14.9353C8.9158 15.0709 8.84815 15.2232 8.8203 15.383C8.8047 15.473 8.7304 15.5477 8.63705 15.5477H8.58555C8.4637 15.5477 8.36325 15.4504 8.3812 15.3325C8.50445 14.5246 9.3126 13.9387 10.2332 13.9387C11.1537 13.9387 11.9618 14.5246 12.085 15.3325C12.1029 15.4504 12.0025 15.5477 11.8807 15.5477C11.7588 15.5477 11.6624 15.4499 11.6359 15.3335C11.5155 14.804 10.957 14.3704 10.2332 14.3704ZM4.58977 14.948C4.58977 14.9236 4.55767 14.9105 4.54256 14.9299C4.43542 15.0677 4.36241 15.2236 4.33151 15.388C4.31327 15.4851 4.23308 15.5659 4.13216 15.5659H4.09434C3.97253 15.5659 3.87205 15.4686 3.89001 15.3507C4.01318 14.5424 4.82142 13.957 5.7419 13.957C6.6624 13.957 7.47065 14.5424 7.5938 15.3507C7.6118 15.4686 7.5113 15.5659 7.38945 15.5659C7.2677 15.5659 7.1712 15.4681 7.14475 15.3518C7.02435 14.8219 6.46585 14.3886 5.7419 14.3886C5.6761 14.3886 5.652 14.4796 5.69605 14.5274C5.7984 14.6386 5.8608 14.7861 5.8608 14.948C5.8608 15.2938 5.57625 15.5741 5.2253 15.5741C4.87429 15.5741 4.58977 15.2938 4.58977 14.948ZM8.7068 16.4579C8.7929 16.3736 8.92595 16.3326 9.03285 16.3897C9.13975 16.4469 9.1803 16.5795 9.10325 16.6719C8.85235 16.9725 8.44615 17.1631 7.99815 17.1631C7.55035 17.1631 7.14325 16.9746 6.89205 16.6716C6.8153 16.5791 6.85635 16.4464 6.96345 16.3897C7.07055 16.3329 7.20335 16.3745 7.28935 16.4588C7.45495 16.6215 7.7062 16.7315 7.99815 16.7315C8.2893 16.7315 8.54085 16.6203 8.7068 16.4579Z" fill="#6BC674"/>
</g>
<defs>
<clipPath id="clip0_116_51">
<rect width="16" height="25.6" fill="white" transform="translate(0 0.799988)"/>
</clipPath>
</defs>
</svg>
