<svg width="16" height="16" viewBox="0 0 16 16" fill="none" xmlns="http://www.w3.org/2000/svg">
<path d="M4.66667 13.3333H11.3333" stroke="#64748B" stroke-width="1.33" stroke-linecap="round" stroke-linejoin="round"/>
<path d="M6.66667 13.3333C10.3333 11.6667 7.2 9.06667 8.66667 6.66667" stroke="#64748B" stroke-width="1.33" stroke-linecap="round" stroke-linejoin="round"/>
<path d="M6.33333 6.26666C7.06667 6.8 7.53333 7.73333 7.86667 8.73333C6.53333 9 5.53333 9 4.66667 8.53333C3.86667 8.13333 3.13333 7.26666 2.66667 5.73333C4.53333 5.4 5.6 5.73333 6.33333 6.26666Z" stroke="#64748B" stroke-width="1.33" stroke-linecap="round" stroke-linejoin="round"/>
<path d="M9.4 4.00001C8.89173 4.79438 8.63605 5.7241 8.66667 6.66667C9.93334 6.60001 10.8667 6.26667 11.5333 5.73334C12.2 5.06667 12.6 4.20001 12.6667 2.66667C10.8667 2.73334 10 3.33334 9.4 4.00001Z" stroke="#64748B" stroke-width="1.33" stroke-linecap="round" stroke-linejoin="round"/>
</svg>
